<?xml version="1.0" standalone="no"?>
<!DOCTYPE svg PUBLIC "-//W3C//DTD SVG 20010904//EN"
 "http://www.w3.org/TR/2001/REC-SVG-20010904/DTD/svg10.dtd">
<svg version="1.0" xmlns="http://www.w3.org/2000/svg"
 width="10409.000000pt" height="7327.000000pt" viewBox="0 0 10409.000000 7327.000000"
 preserveAspectRatio="xMidYMid meet">

<g transform="translate(0.000000,7327.000000) scale(0.100000,-0.100000)"
fill="#000000" stroke="none">
<path d="M33840 53320 c-2747 -112 -5312 -750 -7635 -1900 -1319 -653 -2458
-1421 -3505 -2364 -342 -308 -884 -870 -1186 -1231 -1439 -1720 -2265 -3641
-2448 -5690 -41 -459 -46 -1100 -11 -1545 78 -1005 291 -1957 661 -2946 51
-138 123 -320 159 -404 35 -85 63 -155 62 -156 -1 -1 -636 -315 -1412 -697
-9199 -4531 -15913 -7852 -16130 -7977 -433 -250 -716 -671 -780 -1158 -88
-669 267 -1322 875 -1611 218 -103 375 -141 625 -148 153 -4 198 -2 301 15
224 39 254 52 1254 549 1685 839 4611 2286 9390 4643 3769 1859 7422 3660
7436 3666 6 3 57 -57 114 -133 598 -795 1318 -1524 2130 -2154 2117 -1643
4947 -2696 8460 -3148 2208 -285 4692 -335 7455 -151 5422 362 11944 1631
19445 3785 256 73 472 135 481 137 8 1 120 -78 250 -178 4541 -3514 9015
-5312 13064 -5251 415 7 592 15 960 48 3027 266 5665 1618 7528 3857 1329
1597 2195 3607 2466 5722 179 1391 111 2750 -205 4149 -31 134 -52 247 -47
251 4 4 289 125 633 268 5449 2270 11517 5011 15955 7206 994 492 1455 734
1638 858 317 217 564 592 641 973 110 548 -80 1115 -499 1485 -202 179 -484
316 -755 367 -135 25 -419 25 -555 -1 -139 -26 -303 -81 -491 -166 -199 -90
-301 -144 -417 -223 -100 -68 -499 -272 -1367 -697 -4192 -2056 -9426 -4424
-14495 -6558 -596 -251 -1418 -594 -1436 -599 -12 -3 -42 41 -119 174 -1350
2337 -3431 4232 -6135 5586 -1664 832 -3516 1440 -5589 1833 -2549 483 -5384
623 -8466 419 -4349 -289 -9223 -1268 -14417 -2896 -139 -43 -260 -79 -268
-79 -9 0 -91 58 -183 128 -2261 1730 -4609 2854 -7157 3426 -1113 250 -2332
401 -3485 431 -124 4 -297 13 -385 21 -190 16 -526 40 -790 55 -245 13 -1349
20 -1615 9z m1575 -740 c243 -13 586 -37 790 -55 88 -7 261 -16 385 -20 2185
-57 4332 -520 6255 -1348 1477 -636 2925 -1512 4292 -2599 l162 -129 363 115
c5665 1790 10831 2796 15413 3001 1083 48 2345 50 3320 5 1935 -90 3696 -333
5350 -739 3641 -895 6582 -2568 8602 -4896 651 -751 1213 -1583 1644 -2437 55
-109 104 -198 109 -198 4 0 167 66 362 146 4319 1787 8877 3797 12963 5717
2223 1044 4562 2188 4725 2311 75 56 155 99 355 188 153 69 260 98 380 105
385 21 725 -217 845 -592 34 -108 39 -310 11 -430 -56 -232 -196 -415 -422
-548 -297 -175 -1909 -978 -3414 -1700 -3834 -1838 -8181 -3793 -12515 -5629
-590 -250 -2163 -908 -2552 -1068 -71 -29 -128 -56 -128 -61 0 -4 25 -93 56
-196 72 -246 183 -697 233 -948 147 -745 213 -1410 213 -2170 0 -515 -23 -890
-83 -1365 -355 -2829 -1789 -5345 -3984 -6991 -1237 -928 -2706 -1566 -4270
-1853 -743 -136 -1360 -191 -2165 -190 -689 0 -1196 35 -1875 130 -3195 444
-6636 2019 -10120 4633 -296 222 -592 451 -807 623 -81 65 -152 118 -159 118
-6 0 -228 -63 -493 -140 -3957 -1146 -7711 -2063 -11121 -2715 -3602 -688
-6873 -1093 -9810 -1215 -1153 -47 -2450 -47 -3510 0 -1641 74 -3187 265
-4565 565 -3295 717 -5811 2067 -7558 4055 -272 310 -544 662 -831 1078 -62
89 -115 162 -118 162 -6 0 -3968 -1952 -8398 -4138 -5192 -2562 -7035 -3473
-8665 -4284 -663 -330 -1228 -608 -1255 -618 -150 -52 -356 -53 -512 -2 -226
73 -391 216 -493 427 -67 139 -84 212 -84 365 0 153 17 226 84 365 57 118 136
216 235 292 52 40 258 148 785 412 1399 702 6089 3019 14040 6938 1356 669
2678 1321 2939 1449 261 129 477 236 479 239 3 3 -38 94 -91 202 -854 1759
-1194 3612 -987 5378 298 2531 1697 4881 4005 6730 2604 2084 6167 3358 9860
3525 132 6 278 12 325 14 173 7 1221 -3 1405 -14z"/>
<path d="M34195 50933 c-3473 -64 -6898 -1231 -9330 -3178 -559 -448 -1113
-986 -1541 -1500 -837 -1003 -1411 -2106 -1693 -3254 -306 -1243 -271 -2540
104 -3846 140 -487 343 -1013 570 -1482 l93 -192 499 245 c1046 517 7782 3834
8063 3972 4280 2097 8102 3762 11925 5194 755 283 1799 659 2362 851 66 23
122 47 124 52 2 12 -91 80 -388 283 -1240 851 -2543 1511 -3868 1962 -1255
426 -2584 685 -3980 775 -132 8 -413 22 -625 30 -212 8 -486 23 -610 34 -312
28 -539 40 -935 51 -317 9 -436 9 -770 3z m1020 -743 c263 -11 541 -29 825
-55 85 -7 254 -16 375 -20 1480 -41 2793 -248 4087 -646 1055 -324 2126 -800
3113 -1384 81 -48 145 -88 143 -90 -1 -2 -208 -78 -458 -170 -3872 -1419
-7974 -3183 -12245 -5267 -253 -124 -2219 -1091 -4370 -2151 -2150 -1059
-3916 -1927 -3924 -1929 -37 -9 -275 675 -384 1107 -152 599 -218 1119 -218
1715 0 396 21 672 82 1040 292 1776 1349 3447 3049 4819 1135 916 2551 1679
4088 2201 1517 516 3176 807 4777 839 385 7 698 5 1060 -9z"/>
<path d="M63865 49910 c-4042 -116 -8447 -857 -13345 -2246 -621 -176 -1694
-495 -1727 -513 -8 -4 52 -66 165 -171 250 -233 1308 -1292 1618 -1620 794
-842 1383 -1498 2874 -3200 1375 -1570 1877 -2131 2560 -2865 1270 -1364 2653
-2693 3926 -3772 l191 -162 399 120 c5872 1770 12516 4134 19254 6851 410 165
751 302 758 305 9 4 -12 53 -69 162 -993 1900 -2537 3452 -4624 4646 -2445
1400 -5574 2225 -9190 2424 -198 11 -477 25 -620 31 -331 14 -1788 21 -2170
10z m2115 -740 c2004 -80 3657 -302 5290 -710 2451 -613 4546 -1634 6125
-2985 810 -693 1500 -1482 2026 -2317 49 -78 86 -145 82 -149 -15 -13 -1905
-762 -2993 -1186 -3119 -1215 -6593 -2490 -9325 -3423 -2393 -817 -4338 -1448
-6380 -2071 -353 -107 -502 -149 -515 -143 -22 11 -451 385 -752 656 -578 521
-1018 938 -1646 1563 -1136 1128 -1846 1901 -3847 4185 -1848 2109 -2493 2819
-3482 3835 -218 223 -366 383 -359 386 14 8 833 241 1206 343 3830 1046 7378
1690 10630 1931 646 47 1296 79 2075 99 248 7 1611 -3 1865 -14z"/>
<path d="M46345 46361 c-4556 -1558 -9030 -3424 -14030 -5854 -618 -300 -9040
-4448 -9049 -4457 -8 -8 85 -145 258 -375 2058 -2748 5778 -4275 11106 -4560
668 -35 895 -40 1915 -40 1124 0 1581 13 2570 70 5200 305 11676 1540 18973
3621 l134 38 -39 36 c-21 19 -171 155 -333 301 -631 569 -1062 980 -1776 1693
-785 785 -1288 1318 -2159 2286 -457 508 -684 764 -1710 1935 -1263 1442
-1614 1836 -2204 2479 -907 988 -1738 1827 -2504 2529 -238 218 -548 492 -560
494 -7 1 -273 -87 -592 -196z m611 -793 c760 -692 1650 -1591 2594 -2623 539
-588 1009 -1118 2345 -2645 1255 -1434 1956 -2212 2734 -3034 498 -525 1326
-1355 1859 -1861 218 -206 260 -251 245 -257 -24 -10 -483 -136 -1128 -308
-6741 -1799 -12525 -2802 -17330 -3005 -708 -29 -1229 -38 -2030 -32 -742 6
-942 11 -1475 37 -3666 182 -6567 972 -8613 2347 -490 330 -904 669 -1312
1078 -192 191 -457 483 -463 509 -2 11 3302 1644 7478 3697 1619 795 2887
1396 4361 2064 3460 1570 6983 2981 10082 4039 183 62 359 123 392 134 33 11
65 21 71 21 6 1 92 -72 190 -161z"/>
<path d="M81060 41054 c-432 -180 -2485 -997 -3470 -1381 -5472 -2136 -11008
-4082 -15617 -5491 -139 -42 -252 -80 -251 -84 4 -9 261 -200 556 -411 3168
-2273 6255 -3613 9082 -3941 761 -89 1576 -103 2285 -40 2405 212 4475 1274
5926 3040 451 548 857 1199 1157 1854 809 1765 1029 3772 626 5713 -62 297
-187 778 -202 777 -4 -1 -45 -17 -92 -36z m-376 -1124 c134 -740 170 -1570
100 -2310 -179 -1910 -976 -3653 -2262 -4946 -1285 -1292 -2965 -2057 -4917
-2238 -442 -41 -1238 -47 -1675 -12 -1627 131 -3230 570 -5010 1374 -302 136
-1055 512 -1370 685 -419 229 -768 431 -1165 675 -444 274 -1050 672 -1038
682 4 4 217 74 473 155 4942 1567 10624 3620 16215 5859 413 165 612 240 616
233 4 -7 19 -77 33 -157z"/>
<path d="M32873 26283 c-24 -73 -72 -159 -104 -188 -78 -70 143 -65 -2771 -65
l-2628 0 0 -69 0 -68 75 -28 c92 -33 157 -87 182 -153 17 -45 18 -152 18
-2597 0 -2445 -1 -2552 -18 -2597 -25 -66 -90 -120 -182 -153 l-75 -28 0 -68
0 -69 2703 -2 2702 -3 53 -29 c59 -33 101 -88 134 -178 l21 -58 68 0 69 0 0
750 0 750 -69 0 -68 0 -21 -58 c-33 -90 -75 -145 -134 -178 l-53 -29 -1927 -3
-1928 -2 0 800 0 800 1205 0 c819 0 1220 -3 1254 -11 93 -20 168 -100 203
-216 l12 -43 68 0 68 0 0 735 0 735 -70 0 c-60 0 -70 -2 -70 -18 0 -30 -66
-155 -96 -184 -16 -15 -47 -35 -69 -45 -38 -17 -110 -18 -1272 -21 l-1233 -2
0 690 0 690 1853 0 c2055 0 1919 4 1996 -65 32 -29 80 -115 104 -187 5 -15 19
-18 77 -18 l70 0 0 750 0 750 -70 0 c-58 0 -72 -3 -77 -17z"/>
<path d="M45823 26283 c-24 -73 -72 -159 -104 -188 -78 -70 143 -65 -2771 -65
l-2628 0 0 -69 0 -68 75 -28 c92 -33 157 -87 182 -153 17 -45 18 -152 18
-2597 0 -2445 -1 -2552 -18 -2597 -25 -66 -90 -120 -182 -153 l-75 -28 0 -68
0 -69 2703 -2 2702 -3 53 -29 c59 -33 101 -88 134 -178 l21 -58 68 0 69 0 0
750 0 750 -69 0 -68 0 -21 -58 c-33 -90 -75 -145 -134 -178 l-53 -29 -1927 -3
-1928 -2 0 800 0 800 1205 0 c819 0 1220 -3 1254 -11 93 -20 168 -100 203
-216 l12 -43 68 0 68 0 0 735 0 735 -70 0 c-60 0 -70 -2 -70 -18 0 -30 -66
-155 -96 -184 -16 -15 -47 -35 -69 -45 -38 -17 -110 -18 -1272 -21 l-1233 -2
0 690 0 690 1853 0 c2055 0 1919 4 1996 -65 32 -29 80 -115 104 -187 5 -15 19
-18 77 -18 l70 0 0 750 0 750 -70 0 c-58 0 -72 -3 -77 -17z"/>
<path d="M36295 26124 c-22 -2 -98 -9 -170 -15 -808 -68 -1432 -378 -1783
-887 -236 -343 -328 -801 -251 -1261 68 -408 315 -780 664 -999 70 -44 283
-144 385 -180 293 -106 520 -143 1475 -242 676 -69 936 -106 1151 -160 201
-51 346 -146 400 -263 82 -180 40 -392 -117 -586 -174 -215 -519 -367 -963
-423 -130 -17 -539 -16 -676 0 -458 56 -924 189 -1270 362 -247 124 -426 272
-490 405 -27 57 -34 85 -38 151 l-4 81 -63 31 -62 30 -313 -706 c-172 -389
-314 -712 -316 -717 -3 -6 24 -24 58 -41 l63 -31 57 39 c106 72 128 68 458
-84 832 -385 1547 -544 2350 -525 973 24 1788 312 2185 774 200 233 337 516
391 808 29 154 26 492 -5 635 -92 429 -321 775 -656 992 -291 189 -616 303
-1090 382 -216 36 -331 50 -879 106 -946 97 -1142 131 -1314 226 -311 174
-304 566 16 830 208 171 550 265 1022 281 686 22 1311 -148 1835 -498 214
-143 295 -241 295 -358 l0 -56 58 -32 57 -31 348 685 c192 377 347 686 345
688 -2 1 -28 16 -58 33 l-55 31 -58 -39 c-77 -52 -127 -66 -192 -52 -57 11
-201 65 -490 182 -607 245 -1039 364 -1515 415 -136 15 -690 28 -785 19z"/>
<path d="M64535 26124 c-980 -64 -1707 -350 -2242 -883 -390 -387 -672 -903
-792 -1446 -53 -241 -65 -364 -65 -675 0 -255 3 -315 22 -440 82 -533 272
-985 591 -1405 97 -129 377 -408 509 -508 479 -365 1014 -565 1722 -644 196
-22 759 -25 955 -5 1109 113 1875 538 2401 1333 267 404 430 852 480 1324 19
182 14 576 -10 755 -73 534 -248 969 -554 1380 -106 142 -406 445 -547 551
-484 367 -1024 569 -1725 644 -138 15 -617 27 -745 19z m575 -1009 c377 -54
701 -187 985 -404 83 -63 236 -212 305 -296 300 -367 442 -825 427 -1379 -6
-218 -27 -358 -81 -537 -166 -547 -519 -968 -1009 -1204 -199 -96 -396 -153
-637 -187 -143 -19 -527 -17 -670 5 -414 64 -754 217 -1040 469 -438 387 -660
902 -660 1533 0 182 12 303 46 475 163 815 844 1434 1684 1529 52 6 111 13
130 15 76 9 411 -3 520 -19z"/>
<path d="M20040 25962 l0 -69 75 -28 c92 -33 157 -87 182 -153 17 -45 18 -152
18 -2597 0 -2445 -1 -2552 -18 -2597 -25 -66 -90 -120 -182 -153 l-75 -28 0
-69 0 -69 1858 4 c1978 4 1954 3 2297 53 620 89 1070 297 1456 672 437 423
684 948 779 1652 27 199 38 638 21 857 -83 1084 -575 1892 -1396 2293 -301
147 -622 227 -1120 276 -152 16 -369 18 -2032 21 l-1863 4 0 -69z m3630 -915
c350 -46 578 -122 791 -263 106 -69 302 -268 378 -383 168 -253 267 -555 307
-939 20 -181 14 -629 -9 -792 -36 -253 -95 -455 -187 -647 -78 -163 -164 -287
-280 -403 -256 -256 -524 -373 -1001 -436 -106 -15 -266 -18 -1101 -21 l-978
-4 0 1956 0 1956 978 -4 c831 -3 996 -6 1102 -20z"/>
<path d="M46970 25961 l0 -68 75 -28 c92 -33 157 -87 182 -153 17 -45 18 -152
18 -2597 0 -2445 -1 -2552 -18 -2597 -25 -66 -90 -120 -182 -153 l-75 -28 0
-68 0 -69 860 0 860 0 0 69 0 68 -57 21 c-119 44 -180 98 -203 183 -7 24 -9
672 -8 1838 l3 1803 1663 -1715 c915 -944 1686 -1743 1713 -1777 63 -79 89
-130 89 -176 0 -76 -51 -135 -142 -164 l-38 -12 0 -69 0 -69 920 0 920 0 0 70
c0 59 -3 72 -17 76 -74 23 -149 62 -182 95 -77 74 -71 -154 -71 2674 0 2828
-6 2600 71 2674 33 33 108 72 182 95 14 4 17 17 17 76 l0 70 -855 0 -855 0 0
-70 c0 -48 4 -72 13 -75 134 -47 191 -86 230 -159 l22 -41 3 -1777 2 -1776
-119 121 c-65 67 -801 830 -1634 1696 -1216 1262 -1522 1586 -1547 1633 -69
129 -28 243 105 293 l45 18 0 68 0 69 -995 0 -995 0 0 -69z"/>
<path d="M54600 25962 l0 -69 75 -28 c92 -33 157 -87 182 -153 17 -45 18 -152
18 -2597 0 -2445 -1 -2552 -18 -2597 -25 -66 -90 -120 -182 -153 l-75 -28 0
-68 0 -69 915 0 915 0 0 69 0 69 -64 22 c-119 39 -187 108 -206 209 -6 34 -10
411 -10 1032 l0 979 779 0 780 0 579 -842 c318 -464 612 -892 652 -953 81
-123 150 -257 150 -292 0 -64 -52 -110 -157 -139 l-63 -17 0 -69 0 -68 1055 0
1055 0 0 68 0 67 -82 17 c-134 28 -198 65 -313 182 -55 57 -155 176 -222 267
-110 146 -1292 1821 -1289 1826 1 1 69 15 151 32 632 127 1057 412 1265 846
113 236 161 470 161 785 0 218 -12 321 -58 505 -165 668 -639 1064 -1414 1180
-326 49 -288 48 -2501 52 l-2078 4 0 -69z m3952 -902 c260 -15 391 -50 545
-146 213 -132 307 -371 281 -710 -28 -368 -245 -576 -668 -641 -91 -14 -269
-17 -1332 -20 l-1228 -4 0 765 0 766 1118 0 c614 0 1192 -5 1284 -10z"/>
<path d="M69040 25961 l0 -68 75 -28 c92 -33 157 -87 182 -153 17 -45 18 -152
18 -2597 0 -2445 -1 -2552 -18 -2597 -25 -66 -90 -120 -182 -153 l-75 -28 0
-68 0 -69 2618 -2 c2529 -3 2618 -4 2660 -22 58 -25 115 -93 145 -174 l25 -67
71 -3 71 -3 0 751 0 751 -71 -3 -71 -3 -25 -67 c-30 -81 -87 -149 -145 -174
-41 -18 -113 -19 -1886 -22 l-1842 -2 2 2257 c3 2150 4 2260 21 2298 35 77 94
123 205 159 l52 18 0 69 0 69 -915 0 -915 0 0 -69z"/>
<path d="M77530 25963 l0 -68 70 -34 c185 -89 225 -237 129 -480 -27 -68
-2204 -4614 -2261 -4723 -93 -174 -175 -251 -315 -295 l-83 -25 0 -69 0 -69
965 0 965 0 0 69 0 68 -62 23 c-91 32 -162 82 -193 135 -34 58 -36 138 -5 234
12 38 117 268 235 512 l213 444 1324 3 1325 2 226 -462 c124 -255 233 -487
241 -517 52 -179 -15 -302 -190 -353 l-74 -22 0 -68 0 -68 1075 0 1075 0 0 70
0 69 -42 11 c-210 53 -312 162 -500 534 -339 673 -2236 4516 -2260 4581 -24
63 -31 97 -32 161 -1 72 2 85 26 121 35 53 82 89 155 118 l58 24 3 70 3 71
-1036 0 -1035 0 0 -67z m1474 -2453 l463 -1015 -474 -3 c-260 -1 -686 -1 -947
0 l-474 3 476 1029 c325 700 479 1024 485 1015 5 -8 217 -471 471 -1029z"/>
</g>
</svg>
